<?xml version="1.0"?><svg width="668.128" height="692.107" xmlns="http://www.w3.org/2000/svg" xmlns:xlink="http://www.w3.org/1999/xlink">
 <defs>
  <linearGradient id="linearGradient3958">
   <stop offset="0" stop-color="rgb(255,255,255)" id="stop3960"/>
   <stop offset="1" stop-color="rgb(230,230,230)" id="stop3962"/>
  </linearGradient>
  <linearGradient xlink:href="#linearGradient3958" y2="0.375749" x2="0.31152" y1="1.02373" x1="0.226582" gradientTransform="matrix(15.8154 0 0 15.8154 -15469.5 -3000.2)" id="linearGradient2738"/>
 </defs>
 <metadata id="metadata5525">image/svg+xml</metadata>
 <g>
  <title>Layer 1</title>
  <g id="layer1">
   <g id="g3573">
    <path filter=" url(#filter4715)" d="m0.402488,546.422424l370.700203,147.917847l297.46524,-210.589569l-370.629639,-97.776276l-297.535805,160.447998z" transform="matrix(6.96804 0 0 7.16414 -8911.72 -4137.38)" id="path4665"/>
    <path d="m22.632999,266.447021l0,277.031982l354.804317,128.849976l273.953003,-183.148987l0,-263.180984l-281.649017,149.289993l-347.108303,-108.84198z" fill="#ef4e3a" id="path3105"/>
    <path filter=" url(#filter4049)" d="m21.701607,522.870972l348.997765,130.714294l0,-270.047913l-348.997765,-106.27951l0,245.613129z" transform="matrix(15.8154 0 0 15.8154 -15730.7 -2436.6)" id="path3107"/>
    <rect height="15.8049" width="0.439288" y="216.771" x="1001.73" transform="matrix(18.0021 0 0 18.0021 -17662.6 -3520.43)" fill="#ffffff" id="rect3109"/>
    <path d="m302.27832,118.037994l355.653015,56.072006l-0.875,95.518967l-279.882019,141.644043l-360.746315,-110.905029l0.5877,-97.647995l285.262619,-84.681992z" fill="#ef4e3a" id="path3111"/>
    <path filter=" url(#filter4286)" d="m15.96003,215.483047l1.439255,68.95488l350.453438,109.15802l1.423798,-80.437103l-353.31649,-97.675797z" transform="matrix(15.8154 0 0 15.8154 -15730.7 -2436.6)" id="path3113"/>
    <path filter=" url(#filter3840)" d="m18.553778,190.526291l353.886011,93.959183l278.033905,-121.68367l-0.316589,7.227646l-273.763458,121.288391l-1.265503,98.529877l-8.224335,0l0,-98.529877l-347.938814,-92.45694l-0.411217,-8.33461z" transform="matrix(15.8154 0 0 15.8154 -15730.7 -2436.6)" id="path3115"/>
    <path filter=" url(#filter3936)" d="m442.975861,138.367035l-289.738266,91.286545l-3.953842,341.8181l74.016922,29.606567l3.003998,-350.279633l294.798233,-111.972824l-78.127045,-0.458755z" transform="matrix(15.8154 0 0 15.8154 -15730.7 -2436.6)" id="path3117"/>
    <path d="m449.910309,141.326004l-296.476013,97.895981l-4.414001,351.700012l73.660995,26.464966l3.705002,-357.019958l297.452026,-107.800003l-73.928009,-11.240997z" fill="url(#linearGradient2738)" id="path3119"/>
    <path filter=" url(#filter4286)" d="m656.815186,179.918808l-5.693298,74.262527l-281.674347,140.362274l-1.422821,-80.090912l288.790466,-134.53389z" transform="matrix(-15.8154 3.84775 0 15.8154 16725.9 -6396.61)" id="path3121"/>
    <path filter=" url(#filter3954)" d="m148.968094,148.409729l343.510056,88.044357l0.789612,338.844986l66.740417,-44.552002l-4.110229,-324.958969l-340.347641,-75.123154l-66.582214,17.744781z" transform="matrix(15.8154 0 0 15.8154 -15730.7 -2436.6)" id="path3123"/>
    <path d="m150.945297,162.701004l347.159988,86.036972l-1.310974,343.432983l65.879028,-44.225952l-1.132019,-329.867996l-342.104019,-76.340012l-68.492004,20.964005z" fill="#ffffff" id="path3125"/>
    <path d="m226.79129,70.977997c0,0 3.449005,28.5 23.259979,54.729996c9.401031,12.449005 45.835052,33.522003 45.835052,33.522003l19.839996,23.944c0,0 -20.524017,6.841003 -30.786011,5.472992c-10.260986,-1.368988 -61.166016,-16.138 -80.322006,-27.083984c-19.156006,-10.945999 -53.361008,-49.526001 -55.414001,-58.419006c-2.05101,-8.893997 -11.501007,-32.018997 -3.291,-47.070007c8.207993,-15.050995 24.095993,-22.037994 28.884995,-22.722c4.789001,-0.68399 49.940002,22.576004 49.940002,22.576004l2.052994,15.050003z" fill="#ffffff" id="path3127"/>
    <path filter=" url(#filter4009)" d="m153.870834,229.020828l65.791641,16.179321l-4.269501,183.268784l-63.736526,-56.065552l2.214386,-143.382553z" transform="matrix(15.8154 0 0 15.8154 -15730.7 -2436.6)" id="path3129"/>
    <path d="m151.405289,549.972961l-1.182999,39.962036l71.341003,25.753967l0.591003,-44.106995l-70.749008,-21.609009z" fill="#ffffff" id="path3131"/>
    <path filter=" url(#filter4009)" d="m557.269165,210.538132l-53.18692,23.881638l2.357941,146.565063l52.663208,-46.440186l-1.834229,-124.006516z" transform="matrix(-13.1002 0 0 13.1002 13828.7 -2431.54)" id="path3133"/>
    <g transform="matrix(15.7415 1.52743 -1.52743 15.7415 -15387.8 -3975.65)" id="g3135">
     <path filter=" url(#filter4332)" d="m1013.294922,166.915741c0,0 1.909973,-0.140991 2.190002,0.988983c0.279968,1.131012 -0.640015,2.473999 1.76001,4.665009c0.709961,-0.352997 0.779968,-1.059998 0.779968,-1.059998l1.840027,0.778015c0,0 -1.47998,-2.19101 -1.47998,-3.110016c0,-0.919006 0.209961,-2.049988 -0.430054,-2.402985c-0.629944,-0.354004 -3.73999,-0.354004 -3.73999,-0.354004l-0.919983,0.494995z" fill="#ffffff" id="path3137"/>
     <path d="m1013.394897,166.780731c0,0 1.910034,-0.140991 2.200012,0.98999c0.280029,1.130005 -0.640015,2.473022 1.76001,4.664001c0.710022,-0.352997 0.780029,-1.059998 0.780029,-1.059998l1.839966,0.778015c0,0 -1.48999,-2.19101 -1.48999,-3.110016c0,-0.918976 0.219971,-2.049988 -0.419983,-2.402985c-0.640015,-0.354004 -3.75,-0.354004 -3.75,-0.354004l-0.920044,0.494995z" fill="#ffffff" id="path3139"/>
    </g>
    <path filter=" url(#filter4358)" d="m229.626251,163.276245c0,0 -29.099792,14.534454 -42.543472,19.010056c-13.442703,4.47583 -87.143021,-1.122894 -87.143021,-1.122894l37.957367,12.304382l-9.963791,22.347321c0,0 55.670532,0.553589 75.913742,-2.230072c30.049637,-4.096237 39.222839,-27.945786 80.500824,-29.068665c24.830292,-0.664124 38.114685,2.245758 38.114685,2.245758c0,0 -33.68689,-26.838593 -92.836334,-23.485886z" transform="matrix(15.8154 0 0 15.8154 -15730.7 -2436.6)" id="path3141"/>
    <path filter=" url(#filter5203)" d="m200.368149,32.815117c0,0 -17.397522,-9.947853 -24.039719,-9.947853c-6.642197,0 -30.681915,9.125422 -33.21196,21.572182c-2.531006,12.446762 -5.851624,38.16246 5.851624,53.092209c11.544937,14.945663 28.941483,30.713524 28.941483,30.713524c0,0 -26.253128,-50.071564 -14.866516,-73.019764c12.494797,-25.162357 38.115662,-22.410297 37.325089,-22.410297z" transform="matrix(15.8154 0 0 15.8154 -15730.7 -2436.6)" id="path3143"/>
    <path d="m215.031296,16.179001c-29.761993,2.088997 -61.203003,23.056 -71.662994,41.020996c-13.947983,23.953003 8.01799,67.132004 40.304001,92.087006c44.244995,34.199982 110.436005,35.473999 110.436005,35.473999c0,-1.032013 43.235992,11.950989 25.700012,-38.598999c-25.178009,-72.577011 -42.19101,-108.020004 -76.112015,-125.041008c-8.686005,-4.359001 -18.744003,-5.639 -28.665009,-4.941994zm-41.615005,28.341003c30.182007,-9.411011 49.032013,31.588989 62.373001,48.264999c16.419022,20.522995 57.825027,81.054001 57.825027,81.054001l8.401978,10.872986c0,0 -4.575989,0.072998 -50.411987,-10.872986c-45.835007,-10.946014 -78.797012,-42 -80.165009,-44.736008c-27.309998,-32.412994 -35.348007,-72.427994 1.97699,-84.582993z" fill="#ef4e3a" id="path3145"/>
    <path d="m236.489288,174.645004c0,0 -29.063995,14.531982 -42.478989,19.002991c-13.41301,4.471008 -87.190002,-1.118011 -87.190002,-1.118011l38.005997,12.296021l-10.059998,22.356979c0,0 55.729996,0.544006 76.011993,-2.235001c29.923019,-4.10199 39.123993,-27.945984 80.485016,-29.063995c24.811005,-0.67099 38.006012,2.235016 38.006012,2.235016c0,0 -33.535004,-26.828003 -92.780029,-23.473999z" fill="#ffffff" id="path3147"/>
    <path filter=" url(#filter4875)" d="m379.398621,157.313858c0,0 -48.395111,-22.695053 -59.782684,-22.695053c-11.386627,0 -29.891357,21.667023 -24.830292,35.078583c5.21933,13.411331 45.390106,22.695068 57.884888,22.695068c10.912659,-2.830978 21.033783,-6.326065 31.946472,-11.355499c0,-7.211716 -5.218384,-23.723099 -5.218384,-23.723099z" transform="matrix(15.8154 0 0 15.8154 -15730.7 -2436.6)" id="path3149"/>
    <path filter=" url(#filter4943)" d="m252.717087,88.058243l43.966324,69.287231l21.983643,-16.495453c0,0 -21.983643,-49.502296 -34.00351,-71.485687c-12.177185,-21.999077 -20.875488,-31.899632 -20.875488,-31.899632c0,0 18.662079,46.196857 14.233307,54.990215c-4.427826,8.793365 -23.08989,-4.396675 -25.304276,-4.396675z" transform="matrix(15.8154 0 0 15.8154 -15730.7 -2436.6)" id="path3151"/>
    <path d="m380.81131,171.081985c-4.88501,-4.127991 -49.561005,-24.036987 -60.90799,-24.036987c-11.348022,0 -29.917023,21.664001 -24.759003,35.075012c5.158997,13.41098 45.391998,22.695984 57.769989,22.695984c11.024017,-2.826996 21.048004,-6.322998 31.981018,-11.347992c0,-7.221008 2.14798,-15.291016 -4.084015,-22.386017z" fill="#ef4e3a" id="path3153"/>
    <path d="m362.246307,204.380997c0,0 35.532013,13.026001 57.424011,16.446991c21.890991,3.420013 66.401001,10.917984 77.347015,6.813004c10.945984,-4.103989 70.463989,-16.417984 78.67395,-29.417007c8.209045,-12.997986 -43.783997,-15.049988 -43.783997,-15.049988c0,0 -29.417969,18.471008 -49.941986,19.838989c-20.522003,1.368011 -80.724976,-12.997986 -80.724976,-12.997986l-38.311005,10.261993l-0.683014,4.104004z" fill="#ffffff" id="path3155"/>
    <path filter=" url(#filter5073)" d="m311.549927,134.91925c0,0 5.53595,-2.57782 10.280396,-1.075348c6.642181,2.150925 12.019867,2.957428 26.569763,9.125427c15.657074,6.658371 26.095795,11.877228 27.202026,12.683975c8.856567,7.575638 2.847595,15.609802 3.163269,24.355621c-5.376709,2.672897 -22.140991,8.050079 -24.513672,8.587738c-11.070984,-10.311523 1.265503,-27.787476 16.605957,-29.100266c-1.897766,-3.400253 -18.978668,-11.624329 -23.089874,-13.490494c-13.127045,-5.219116 -27.519592,-10.280151 -27.519592,-10.280151c0,0 -13.442719,-1.660553 -19.452637,9.66333c1.423828,-5.646011 11.387604,-11.007507 10.754364,-10.469833z" transform="matrix(15.8154 0 0 15.8154 -15730.7 -2436.6)" id="path3157"/>
    <g transform="matrix(15.8154 0 0 15.8154 -15730.7 -2436.6)" id="g3159">
     <path d="m1018.057922,166.684677l2.119995,-0.518997c0,0 3.459961,-2.94101 3.850037,-3.114014c1.999756,-1.643997 4.489746,-2.250992 6.539795,-1.513992c0,0 -0.219971,-2.639008 -0.910034,-2.985001c-0.699951,-0.345993 -2.599976,-0.604996 -2.599976,-0.604996c0,0 -2.569946,1.725998 -2.879883,2.028992c-0.299988,0.303009 -4.699951,4.630997 -4.699951,4.630997l-1.380005,1.619003l-0.27002,0.565002l0.230042,-0.106995z" fill="#ef4e3a" id="path3161"/>
     <path d="m1028.797729,157.119675c-3.369995,0.216003 -9.989807,8.056 -10.379822,8.487991c-0.390015,0.433014 -0.970032,1.366013 -0.929993,1.322006c0,0 4.209961,1.875 7.849854,1.658005c3.630005,-0.216003 8.179932,-2.410004 8.649902,-5.539001c0.550049,-3.597 -1.809937,-6.145996 -5.189941,-5.929001zm-2.290039,1.492004c1.140015,-0.208008 3.580078,-0.226013 3.140015,3.413986c-0.27002,2.253006 -1.890015,5.827011 -5.219849,6c-3.329956,0.173004 -6.589966,-1.26799 -6.539978,-1.310989c0,0 5.290039,-5.610001 5.51001,-5.783005c0.209961,-0.173004 1.799866,-2.001999 3.109802,-2.319992z" fill="#ef4e3a" id="path3163"/>
    </g>
    <path filter=" url(#filter5115)" d="m139.319962,50.781437c-2.213409,-12.826363 23.249146,-31.725883 44.757858,-40.012944c21.667023,-8.303231 48.553391,-5.646255 48.553391,-5.646255c0,0 -23.564789,10.612217 -33.370255,17.776639c-19.769257,-2.008537 -37.799042,6.436831 -37.799042,6.436831c0,0 -11.386627,4.396681 -22.141953,21.44573z" transform="matrix(15.8154 0 0 15.8154 -15730.7 -2436.6)" id="path3165"/>
    <path filter=" url(#filter5115)" d="m487.427124,57.831799c16.814117,-14.612736 25.382996,-20.859791 52.385437,-22.576363c23.20282,-1.418835 55.602783,23.590374 55.602783,23.590374c0,0 -24.895203,16.607056 -35.900391,21.436264c-7.338135,-16.835083 -34.239563,-27.604778 -34.239563,-27.604778c0,0 -15.835144,-5.947369 -37.848267,5.154503z" transform="matrix(15.4162 3.53113 -3.53113 15.4162 -14737.8 -6002.87)" id="path3167"/>
    <path filter=" url(#filter5389)" d="m551.469177,67.292564c0,0 11.228271,27.78772 5.218384,51.226059c-6.168274,23.454277 -16.605042,37.340294 -16.605042,37.340294c0,0 32.262085,6.073151 47.760864,-0.869965c15.657104,-6.942902 24.356384,-19.974869 24.356384,-19.974869c0,0 6.959778,-39.079758 -2.531006,-57.314911c-9.647156,-18.235146 -20.875488,-22.5686 -20.875488,-22.5686c0,0 -23.406494,0 -37.324097,12.161991z" transform="matrix(15.8154 0 0 15.8154 -15730.7 -2436.6)" id="path3169"/>
   </g>
  </g>
 </g>
</svg>